<?xml version="1.0" encoding="utf-8"?>
<!-- Generator: Adobe Illustrator 16.0.0, SVG Export Plug-In . SVG Version: 6.00 Build 0)  -->
<!DOCTYPE svg PUBLIC "-//W3C//DTD SVG 1.1//EN" "http://www.w3.org/Graphics/SVG/1.1/DTD/svg11.dtd">
<svg version="1.1" id="Layer_1" xmlns="http://www.w3.org/2000/svg" xmlns:xlink="http://www.w3.org/1999/xlink" x="0px" y="0px"
	 width="171.232px" height="171.232px" viewBox="0 0 171.232 171.232" enable-background="new 0 0 171.232 171.232"
	 xml:space="preserve">
<g id="Layer_1_copy">
	
		<linearGradient id="SVGID_1_" gradientUnits="userSpaceOnUse" x1="2.2117" y1="82.573" x2="-118.868" y2="-38.5066" gradientTransform="matrix(0 -1 -1 0 107.6484 27.2891)">
		<stop  offset="0" style="stop-color:#823293"/>
		<stop  offset="0.3054" style="stop-color:#EE583B"/>
		<stop  offset="1" style="stop-color:#FFF200"/>
	</linearGradient>
	<circle fill="url(#SVGID_1_)" cx="85.615" cy="85.617" r="85.616"/>
</g>
<g id="outlined">
	<g>
		<path fill="#FFFFFF" d="M37.502,38.066h28.932l13.665,92.208H68.771l-3.57-24.006H45.997l-3.57,24.006H31.101l11.325-77.312
			l4.679-2.832v-0.86h-9.604V38.066z M56.707,49.27h-2.339l-6.771,45.796h16.004L56.707,49.27z"/>
		<path fill="#FFFFFF" d="M125.648,79.062v11.203h-20.806v28.809h16.497v-9.479h11.203v20.682H93.64V52.963l4.678-2.832V49.27
			H87.115V38.066h44.319v21.79h-11.203V49.27h-15.39v29.792H125.648z"/>
	</g>
</g>
</svg>
